# xmcd
#
# Track frame offsets:
#	150
#	17700
#	41246
#	59021
#	77696
#	96638
#	121238
#	141676
#	160361
#
# Disc length: 2434 seconds
#
# Revision: 4294770685
# Processed by: cddbd v1.5.2PL0 Copyright (c) Steve Scherf et al.
# Submitted via: EZCDAudioConverter 8.0.2.1
#
DISCID=86098009
DTITLE=Lê Minh, Phương Uyên - Đêm Tình Nhân
DYEAR=2008
DGENRE=World Pop
TTITLE0=Tình yêu
TTITLE1=Đêm tình nhân
TTITLE2=Chính anh
TTITLE3=Một lần nữa xin có nhau
TTITLE4=Những ngày không anh
TTITLE5=Cạn tình
TTITLE6=Xa cách nghìn trùng
TTITLE7=Xin được mãi yêu nhau
TTITLE8=Yêu nhau một đời
EXTD=
EXTT0=
EXTT1=
EXTT2=
EXTT3=
EXTT4=
EXTT5=
EXTT6=
EXTT7=
EXTT8=
PLAYORDER=
